# xmcd
#
# Track frame offsets:
#	150
#	6177
#	19222
#	27865
#	48540
#	63387
#	72867
#	80422
#	92595
#	97867
#	105825
#	113060
#	127927
#	153012
#	160875
#	166725
#
# Disc length: 2316 seconds
#
# Revision: 1
# Processed by: cddbd v1.5.1PL0 Copyright (c) Steve Scherf et al.
# Submitted via: CDex 1.50Beta5
#
DISCID=af090a10
DTITLE=松谷 みよ子 - いない いない ばあ 3
DYEAR=1900
DGENRE=
TTITLE0=いない いない ばあ
TTITLE1=あなたは だあれ
TTITLE2=おむつを かえましょう
TTITLE3=おいしいものすきなくまさん
TTITLE4=おんぶおばけ
TTITLE5=のせて のせて
TTITLE6=あそびましょ
TTITLE7=きゅうりさんととまとさんとたまごさん
TTITLE8=おひさまこんにちは
TTITLE9=いたい いたいは とんでいけ
TTITLE10=えんやらりんごの木
TTITLE11=あのやま こえて かわこえて
TTITLE12=ルウのおうち
TTITLE13=おふろでちゃぷちゃぷ
TTITLE14=おでことおでこが
TTITLE15=ねんねのおはなし
EXTD=
EXTT0=
EXTT1=
EXTT2=
EXTT3=
EXTT4=
EXTT5=
EXTT6=
EXTT7=
EXTT8=
EXTT9=
EXTT10=
EXTT11=
EXTT12=
EXTT13=
EXTT14=
EXTT15=
PLAYORDER=
